<?xml version="1.0" encoding="UTF-8" standalone="no"?>
<svg
   xmlns:osb="http://www.openswatchbook.org/uri/2009/osb"
   xmlns:dc="http://purl.org/dc/elements/1.1/"
   xmlns:cc="http://creativecommons.org/ns#"
   xmlns:rdf="http://www.w3.org/1999/02/22-rdf-syntax-ns#"
   xmlns:svg="http://www.w3.org/2000/svg"
   xmlns="http://www.w3.org/2000/svg"
   xmlns:sodipodi="http://sodipodi.sourceforge.net/DTD/sodipodi-0.dtd"
   xmlns:inkscape="http://www.inkscape.org/namespaces/inkscape"
   width="24"
   height="24"
   viewBox="0 0 24 24"
   fill="none"
   stroke="currentColor"
   stroke-width="2"
   stroke-linecap="round"
   stroke-linejoin="round"
   id="svg2"
   version="1.1"
   inkscape:version="0.92.4 (5da689c313, 2019-01-14)"
   sodipodi:docname="dr_pi_toggled.svg">
  <metadata
     id="metadata14">
    <rdf:RDF>
      <cc:Work
         rdf:about="">
        <dc:format>image/svg+xml</dc:format>
        <dc:type
           rdf:resource="http://purl.org/dc/dcmitype/StillImage" />
        <dc:title />
      </cc:Work>
    </rdf:RDF>
  </metadata>
  <defs
     id="defs12">
    <linearGradient
       id="linearGradient3754"
       osb:paint="gradient">
      <stop
         style="stop-color:#000000;stop-opacity:1;"
         offset="0"
         id="stop3756" />
      <stop
         style="stop-color:#000000;stop-opacity:0;"
         offset="1"
         id="stop3758" />
    </linearGradient>
  </defs>
  <sodipodi:namedview
     pagecolor="#ffffff"
     bordercolor="#666666"
     borderopacity="1"
     objecttolerance="10"
     gridtolerance="10"
     guidetolerance="10"
     inkscape:pageopacity="0"
     inkscape:pageshadow="2"
     inkscape:window-width="1063"
     inkscape:window-height="797"
     id="namedview10"
     showgrid="false"
     inkscape:zoom="19.666666"
     inkscape:cx="-0.32589989"
     inkscape:cy="15.535438"
     inkscape:window-x="0"
     inkscape:window-y="0"
     inkscape:window-maximized="0"
     inkscape:current-layer="svg2" />
  <rect
     style="fill:#898989;fill-opacity:1;stroke:#282828;stroke-width:0;stroke-linejoin:miter;stroke-miterlimit:4;stroke-dasharray:none;stroke-opacity:1"
     id="rect4139"
     width="24.017662"
     height="24.16148"
     x="0.071909167"
     y="-0.017661467" />
  <path
     style="opacity:1;vector-effect:none;fill:none;fill-opacity:1;stroke:#b4b4b4;stroke-width:1.77738535;stroke-linecap:butt;stroke-linejoin:miter;stroke-miterlimit:4;stroke-dasharray:none;stroke-dashoffset:0;stroke-opacity:1"
     d="M 12.296467,1.923886 V 22.417998"
     id="path832"
     inkscape:connector-curvature="0" />
  <path
     style="opacity:1;vector-effect:none;fill:none;fill-opacity:1;stroke:#b4b4b4;stroke-width:1.777;stroke-linecap:butt;stroke-linejoin:miter;stroke-miterlimit:4;stroke-dasharray:none;stroke-dashoffset:0;stroke-opacity:1"
     d="M 22.498337,12.158127 1.5184601,12.111849"
     id="path832-8"
     inkscape:connector-curvature="0" />
  <path
     style="fill:#b3b3b3;fill-opacity:1;stroke:#b4b4b4;stroke-width:0;stroke-linecap:round;stroke-miterlimit:0;stroke-dasharray:none;stroke-dashoffset:0;stroke-opacity:1;paint-order:stroke fill markers"
     id="path869"
     sodipodi:type="arc"
     sodipodi:cx="4.9617324"
     sodipodi:cy="18.930403"
     sodipodi:rx="3.3078218"
     sodipodi:ry="3.3437762"
     sodipodi:start="0"
     sodipodi:end="6.2635154"
     d="M 8.2695541,18.930403 A 3.3078218,3.3437762 0 0 1 4.9779985,22.274139 3.3078218,3.3437762 0 0 1 1.6540706,18.963288 3.3078218,3.3437762 0 0 1 4.9129357,15.58699 3.3078218,3.3437762 0 0 1 8.2689143,18.864635 l -3.3071819,0.06577 z" />
  <path
     style="fill:#b3b3b3;fill-opacity:1;stroke:#b4b4b4;stroke-width:0;stroke-linecap:round;stroke-miterlimit:0;stroke-dasharray:none;stroke-dashoffset:0;stroke-opacity:1;paint-order:stroke fill markers"
     id="path869-9"
     sodipodi:type="arc"
     sodipodi:cx="18.984022"
     sodipodi:cy="5.4474387"
     sodipodi:rx="3.3078218"
     sodipodi:ry="3.3437762"
     sodipodi:start="0"
     sodipodi:end="6.2635154"
     d="M 22.291844,5.4474387 A 3.3078218,3.3437762 0 0 1 19.000288,8.7911745 3.3078218,3.3437762 0 0 1 15.67636,5.4803241 3.3078218,3.3437762 0 0 1 18.935226,2.1040263 3.3078218,3.3437762 0 0 1 22.291204,5.3816712 l -3.307182,0.065767 z" />
  <path
     style="fill:#b3b3b3;fill-opacity:1;stroke:#b4b4b4;stroke-width:0;stroke-linecap:round;stroke-miterlimit:0;stroke-dasharray:none;stroke-dashoffset:0;stroke-opacity:1;paint-order:stroke fill markers"
     d="M 4.1513446,22.124911 C 3.1775402,21.870705 2.4669556,21.270842 2.0105615,20.3177 1.7866257,19.850028 1.7498169,19.696233 1.7247724,19.123611 1.6792347,18.082431 1.9218694,17.40478 2.6040185,16.667978 3.288324,15.928846 4.1079159,15.60396 5.1611833,15.654317 c 0.5298198,0.02533 0.7036122,0.06822 1.165864,0.287747 0.6791502,0.322527 1.2332173,0.859627 1.5457084,1.498375 0.2199252,0.449538 0.426744,1.273074 0.3412577,1.35886 -0.022886,0.02297 -0.6942519,0.05979 -1.4919246,0.08184 l -1.450314,0.04009 1.4921152,0.01384 c 1.6999822,0.01577 1.5653114,-0.05394 1.3837018,0.716337 -0.2326521,0.986775 -0.853805,1.787452 -1.7139052,2.209256 -0.8300336,0.407058 -1.4571281,0.479662 -2.282342,0.264244 z"
     id="path886"
     inkscape:connector-curvature="0" />
  <path
     style="fill:#b3b3b3;fill-opacity:1;stroke:#b4b4b4;stroke-width:0;stroke-linecap:round;stroke-miterlimit:0;stroke-dasharray:none;stroke-dashoffset:0;stroke-opacity:1;paint-order:stroke fill markers"
     d="M 4.3010011,22.177787 C 3.3584932,21.993722 2.4622899,21.271294 2.0153764,20.335351 1.7530386,19.785954 1.7482257,19.760328 1.7482257,18.912964 c 0,-0.848412 0.00445,-0.872014 0.2649247,-1.404744 0.3342219,-0.683563 0.9322784,-1.274232 1.6199868,-1.599976 0.461547,-0.218619 0.5330634,-0.231192 1.3150464,-0.231192 0.802679,0 0.8430299,0.0077 1.3745244,0.261495 0.6900532,0.32954 1.2646566,0.88688 1.5611238,1.51422 0.2230105,0.471902 0.4200752,1.256414 0.3366147,1.340059 -0.026468,0.02653 -0.5713099,0.0666 -1.2107606,0.08906 l -1.1626378,0.04084 1.2044786,0.0131 c 1.3731144,0.01493 1.2761803,-0.04836 1.0960651,0.715588 C 7.731366,21.416801 6.052037,22.519757 4.3010011,22.17779 Z"
     id="path888"
     inkscape:connector-curvature="0" />
  <path
     style="fill:#b3b3b3;fill-opacity:1;stroke:#b4b4b4;stroke-width:0;stroke-linecap:round;stroke-miterlimit:0;stroke-dasharray:none;stroke-dashoffset:0;stroke-opacity:1;paint-order:stroke fill markers"
     d="M 4.308791,22.178963 C 3.3429994,21.989293 2.4700556,21.287558 2.0153764,20.335351 1.752841,19.78554 1.7482257,19.760902 1.7482257,18.909235 c 0,-0.854894 0.00362,-0.873958 0.2668561,-1.406587 0.3381503,-0.6842 0.9355273,-1.272013 1.6180554,-1.592148 0.4171505,-0.195662 0.5873799,-0.232931 1.171228,-0.256422 0.5618335,-0.02261 0.7654453,3.18e-4 1.1466661,0.129098 1.1762743,0.397355 1.9739975,1.306595 2.2305404,2.542355 0.047849,0.230486 0.065378,0.440769 0.038955,0.467295 -0.026423,0.02653 -0.4741884,0.06663 -0.9950331,0.08911 l -0.9469904,0.04088 0.9887511,0.01305 c 1.1373754,0.01501 1.0857327,-0.02996 0.8786443,0.765109 C 7.6925549,21.44148 6.0278172,22.51656 4.308791,22.178963 Z"
     id="path890"
     inkscape:connector-curvature="0" />
  <path
     style="fill:#b3b3b3;fill-opacity:1;stroke:#b4b4b4;stroke-width:0;stroke-linecap:round;stroke-miterlimit:0;stroke-dasharray:none;stroke-dashoffset:0;stroke-opacity:1;paint-order:stroke fill markers"
     d="M 4.1762063,22.145886 C 3.0518533,21.843084 2.2311408,21.067496 1.8544293,19.951766 1.7244637,19.566839 1.70251,19.366299 1.724964,18.769146 1.7485102,18.14295 1.7816258,17.987 1.9813066,17.561963 c 0.31985,-0.680827 0.9089591,-1.280223 1.5881786,-1.615912 0.482426,-0.238427 0.6042427,-0.26743 1.2268133,-0.292086 0.5697633,-0.02256 0.7726432,1.38e-4 1.1547328,0.129211 0.8514432,0.287624 1.5541542,0.88869 1.95301,1.670512 0.1674455,0.32822 0.3906677,1.264748 0.3186387,1.336847 -0.027759,0.02779 -0.3794774,0.06936 -0.7815964,0.09239 l -0.7311255,0.04187 0.7730236,0.01206 c 0.8903374,0.01389 0.8657179,-0.01449 0.6629168,0.764118 -0.4671236,1.793408 -2.2687211,2.903001 -3.9696922,2.444909 z"
     id="path892"
     inkscape:connector-curvature="0" />
  <path
     style="fill:#b3b3b3;fill-opacity:1;stroke:#b4b4b4;stroke-width:0;stroke-linecap:round;stroke-miterlimit:0;stroke-dasharray:none;stroke-dashoffset:0;stroke-opacity:1;paint-order:stroke fill markers"
     d="M 4.1762063,22.145886 C 3.3550921,21.92475 2.706064,21.462553 2.2483648,20.773 1.8309455,20.144132 1.6961042,19.626366 1.7265028,18.769146 c 0.022277,-0.628183 0.05449,-0.780797 0.2548038,-1.207183 0.31985,-0.680827 0.9089591,-1.280223 1.5881786,-1.615912 0.4837895,-0.239101 0.6024831,-0.267212 1.2268133,-0.290546 0.8202594,-0.03066 1.3525836,0.107858 1.9571055,0.509256 0.4915501,0.326385 0.7106574,0.557575 1.0256115,1.08217 0.2539236,0.422941 0.5494085,1.437548 0.4482772,1.539251 -0.030011,0.03018 -0.3189698,0.07367 -0.6421314,0.09664 l -0.5875665,0.04177 0.6292052,0.01217 0.6292052,0.01217 v 0.202676 c 0,0.111471 -0.051625,0.378434 -0.1147224,0.59325 -0.5273379,1.795333 -2.2779426,2.855406 -3.9650765,2.401041 z"
     id="path894"
     inkscape:connector-curvature="0" />
  <path
     style="fill:#b3b3b3;fill-opacity:1;stroke:#b4b4b4;stroke-width:0;stroke-linecap:round;stroke-miterlimit:0;stroke-dasharray:none;stroke-dashoffset:0;stroke-opacity:1;paint-order:stroke fill markers"
     d="M 18.035652,8.6064441 C 17.486697,8.4237602 17.263562,8.2972482 16.854327,7.9366632 16.061678,7.2382449 15.694044,6.3409091 15.746975,5.233799 c 0.02637,-0.5515558 0.0668,-0.7157336 0.294206,-1.1945754 0.62647,-1.3191683 2.031252,-2.0871198 3.402294,-1.8599308 1.374568,0.2277733 2.444521,1.2408626 2.729163,2.5841186 0.05674,0.2677461 0.103719,0.5110805 0.104406,0.540743 6.87e-4,0.029663 -0.443689,0.058161 -0.987502,0.063331 -0.543814,0.00517 -1.231445,0.032296 -1.52807,0.060282 -0.395121,0.037279 -0.12958,0.053992 0.993157,0.06251 l 1.532476,0.011627 -0.05084,0.3415686 C 22.060613,7.0236477 21.389983,7.9414786 20.337581,8.4420359 19.854857,8.6716356 19.728274,8.7002221 19.115125,8.7181085 18.60205,8.7330756 18.332332,8.7051751 18.035652,8.6064441 Z"
     id="path896"
     inkscape:connector-curvature="0" />
  <path
     style="fill:#b3b3b3;fill-opacity:1;stroke:#b4b4b4;stroke-width:0;stroke-linecap:round;stroke-miterlimit:0;stroke-dasharray:none;stroke-dashoffset:0;stroke-opacity:1;paint-order:stroke fill markers"
     d="M 18.251622,8.6885867 C 17.548821,8.5424543 16.567329,7.8216984 16.186713,7.172226 15.387556,5.808568 15.675789,3.9394498 16.838752,2.9439159 18.832159,1.237496 21.834449,2.408752 22.243632,5.0524723 l 0.0473,0.305614 -0.923163,0.00711 c -0.507739,0.00391 -1.101137,0.031714 -1.318663,0.061784 -0.281323,0.038889 -0.01537,0.057596 0.921248,0.064798 l 1.316749,0.010125 -0.04876,0.3415686 c -0.11824,0.8283496 -0.567468,1.6686264 -1.14515,2.141993 -0.163462,0.1339452 -0.521882,0.348915 -0.796488,0.4777107 -0.441633,0.2071345 -0.578163,0.2358231 -1.182421,0.2484566 -0.375725,0.00786 -0.763925,-0.00252 -0.862667,-0.023047 z"
     id="path898"
     inkscape:connector-curvature="0" />
  <path
     style="fill:#b3b3b3;fill-opacity:1;stroke:#b4b4b4;stroke-width:0;stroke-linecap:round;stroke-miterlimit:0;stroke-dasharray:none;stroke-dashoffset:0;stroke-opacity:1;paint-order:stroke fill markers"
     d="M 18.071606,8.6408856 C 17.564925,8.4733604 17.157355,8.2280425 16.757627,7.8499966 16.062583,7.1926527 15.734558,6.4139517 15.734558,5.4213203 c 0,-1.2988164 0.692442,-2.404441 1.85056,-2.9547984 2.02454,-0.962096 4.305319,0.3039689 4.658514,2.5859504 l 0.0473,0.305614 -0.815299,0.0063 c -0.448414,0.00346 -0.977094,0.0315 -1.174844,0.062301 -0.259996,0.040496 -0.03375,0.058662 0.817142,0.06561 l 1.176689,0.00961 -0.05055,0.3415686 C 22.121697,6.6703984 21.66834,7.514179 21.093193,7.9854689 20.929731,8.1194141 20.571311,8.334549 20.296705,8.4635467 19.852293,8.6723113 19.718392,8.7001705 19.07833,8.717039 18.625105,8.728984 18.252891,8.700829 18.071601,8.640888 Z"
     id="path900"
     inkscape:connector-curvature="0" />
  <path
     style="fill:#b3b3b3;fill-opacity:1;stroke:#b4b4b4;stroke-width:0;stroke-linecap:round;stroke-miterlimit:0;stroke-dasharray:none;stroke-dashoffset:0;stroke-opacity:1;paint-order:stroke fill markers"
     d="M 17.998758,8.6124133 C 17.125361,8.3008439 16.389803,7.6403411 16.008276,6.8250367 15.716156,6.2007917 15.646591,5.2446618 15.84103,4.5263474 c 0.326609,-1.2065935 1.373841,-2.1326635 2.661021,-2.353148 1.610316,-0.2758354 3.230141,0.8308446 3.666135,2.5047379 0.184895,0.7098616 0.211175,0.6793807 -0.591008,0.6854791 -0.385613,0.00293 -0.84673,0.031241 -1.024705,0.062909 -0.238524,0.042442 -0.05207,0.059944 0.709279,0.066579 l 1.03287,0.009 -0.04907,0.3271977 c -0.08519,0.5681075 -0.24415,1.0001476 -0.531617,1.4449136 -0.341868,0.5289373 -0.762441,0.881938 -1.417229,1.1895281 -0.442274,0.2077606 -0.581391,0.2369916 -1.218375,0.2560034 -0.550552,0.016432 -0.803582,-0.00868 -1.079577,-0.1071341 z"
     id="path902"
     inkscape:connector-curvature="0" />
  <path
     style="fill:#b3b3b3;fill-opacity:1;stroke:#b4b4b4;stroke-width:0;stroke-linecap:round;stroke-miterlimit:0;stroke-dasharray:none;stroke-dashoffset:0;stroke-opacity:1;paint-order:stroke fill markers"
     d="M 17.998758,8.6084693 C 17.135406,8.309929 16.391046,7.642997 16.008276,6.8250367 15.716156,6.2007917 15.646591,5.2446618 15.84103,4.5263474 c 0.305781,-1.1296479 1.196788,-1.9865608 2.388295,-2.296909 1.704682,-0.4440134 3.471533,0.6543071 3.938861,2.4484989 0.183147,0.7031481 0.201414,0.6789144 -0.519099,0.6886569 -1.011146,0.013672 -1.186974,0.1170227 -0.215727,0.1268025 0.97959,0.00986 0.94579,-0.028513 0.713306,0.8098983 -0.317098,1.1435555 -1.139912,1.9969613 -2.23645,2.3196013 -0.519384,0.152821 -1.448062,0.1458116 -1.911458,-0.014427 z"
     id="path904"
     inkscape:connector-curvature="0" />
  <path
     style="fill:#b3b3b3;fill-opacity:1;stroke:#b4b4b4;stroke-width:0;stroke-linecap:round;stroke-miterlimit:0;stroke-dasharray:none;stroke-dashoffset:0;stroke-opacity:1;paint-order:stroke fill markers"
     d="M 17.998758,8.6084693 C 17.135406,8.309929 16.391046,7.642997 16.008276,6.8250367 15.716156,6.2007917 15.646591,5.2446618 15.84103,4.5263474 c 0.459792,-1.6986106 2.252918,-2.7369009 3.959266,-2.2925705 1.112488,0.2896903 2.011548,1.2028328 2.363274,2.400292 0.0631,0.2148162 0.114723,0.4655994 0.114723,0.5572961 0,0.1595792 -0.02387,0.1669378 -0.557296,0.1717754 -0.306513,0.00278 -0.622015,0.032865 -0.701115,0.066855 -0.09408,0.040428 0.09865,0.063549 0.557296,0.066855 0.808541,0.00583 0.792162,-0.015171 0.590884,0.7575863 -0.296217,1.137254 -1.112925,2.0096165 -2.197403,2.3471441 -0.563524,0.1753885 -1.475401,0.1785739 -1.971901,0.00689 z"
     id="path906"
     inkscape:connector-curvature="0" />
  <path
     style="fill:#b3b3b3;fill-opacity:1;stroke:#b4b4b4;stroke-width:0;stroke-linecap:round;stroke-miterlimit:0;stroke-dasharray:none;stroke-dashoffset:0;stroke-opacity:1;paint-order:stroke fill markers"
     d="m 21.415383,5.4351911 c 0,-0.060348 0.783428,-0.023151 0.856917,0.040686 0.01648,0.014315 -0.169586,0.026027 -0.413478,0.026027 -0.243891,0 -0.443439,-0.030021 -0.443439,-0.066713 z"
     id="path908"
     inkscape:connector-curvature="0" />
  <path
     style="fill:#b3b3b3;fill-opacity:1;stroke:#b4b4b4;stroke-width:0;stroke-linecap:round;stroke-miterlimit:0;stroke-dasharray:none;stroke-dashoffset:0;stroke-opacity:1;paint-order:stroke fill markers"
     d="M 17.998758,8.6129419 C 17.119491,8.2979892 16.390057,7.6406809 16.003377,6.8148601 15.710573,6.1895302 15.644615,5.2519618 15.842101,4.5223906 16.3008,2.8278199 18.095834,1.7899376 19.800296,2.2337769 c 1.113674,0.2899992 2.067459,1.2653116 2.378034,2.4317085 0.180008,0.6760391 0.171268,0.6918584 -0.385424,0.697655 -0.266963,0.00278 -0.550105,0.033952 -0.629205,0.069272 -0.09233,0.041227 0.04926,0.05097 0.3955,0.027214 0.724434,-0.049705 0.76822,-0.013487 0.663629,0.5489208 -0.19854,1.0675961 -0.893022,1.9843389 -1.85013,2.4422438 -0.453651,0.2170382 -0.577934,0.2433137 -1.258411,0.2660494 -0.592625,0.0198 -0.832591,-0.00255 -1.115531,-0.1038985 z"
     id="path910"
     inkscape:connector-curvature="0" />
  <path
     style="fill:#b3b3b3;fill-opacity:1;stroke:#b4b4b4;stroke-width:0;stroke-linecap:round;stroke-miterlimit:0;stroke-dasharray:none;stroke-dashoffset:0;stroke-opacity:1;paint-order:stroke fill markers"
     d="m 22.120991,5.3808733 c 0.05191,-0.020772 0.113931,-0.018218 0.137826,0.00568 0.02389,0.023895 -0.01858,0.040891 -0.09438,0.037768 -0.08377,-0.00345 -0.100809,-0.02049 -0.04344,-0.043445 z"
     id="path912"
     inkscape:connector-curvature="0" />
  <path
     style="fill:#b3b3b3;fill-opacity:1;stroke:#b4b4b4;stroke-width:0;stroke-linecap:round;stroke-miterlimit:0;stroke-dasharray:none;stroke-dashoffset:0;stroke-opacity:1;paint-order:stroke fill markers"
     d="M 17.925778,8.6061885 C 17.101688,8.3006633 16.442858,7.6967156 16.036308,6.8741176 15.77236,6.3400557 15.770513,6.3300213 15.770513,5.4299955 c 0,-0.9024788 0.0011,-0.9086395 0.269844,-1.4523152 0.853124,-1.726179 2.958146,-2.365798 4.606607,-1.3997353 0.839447,0.4919487 1.620096,1.7462718 1.629571,2.6183457 0.0016,0.1460539 -0.03497,0.1628947 -0.375766,0.1730928 l -0.377523,0.011297 0.359546,0.042635 c 0.326777,0.038749 0.361627,0.060734 0.382381,0.2412273 0.01256,0.1092259 -0.03076,0.3842785 -0.09627,0.6112279 -0.289068,1.0015052 -0.900179,1.7386608 -1.814546,2.1888038 -0.44482,0.2189849 -0.54313,0.2387679 -1.274514,0.2564731 -0.630682,0.015267 -0.866344,-0.00819 -1.15407,-0.114859 z"
     id="path914"
     inkscape:connector-curvature="0" />
  <path
     style="fill:#b3b3b3;fill-opacity:1;stroke:#b4b4b4;stroke-width:0;stroke-linecap:round;stroke-miterlimit:0;stroke-dasharray:none;stroke-dashoffset:0;stroke-opacity:1;paint-order:stroke fill markers"
     d="M 18.314779,8.7084694 C 17.349792,8.5437943 16.360991,7.7079643 15.938911,6.7001555 15.671498,6.0616493 15.647929,4.9735841 15.887428,4.3234664 c 0.366405,-0.994606 1.129557,-1.7245542 2.14769,-2.0542474 0.500393,-0.1620381 1.24172,-0.1848883 1.739856,-0.053628 1.165725,0.3071709 2.066612,1.2193096 2.402925,2.4329345 0.05664,0.2043911 0.102981,0.4464445 0.102981,0.5378965 0,0.1600906 -0.0076,0.1662762 -0.203389,0.1662762 -0.111865,0 -0.20339,0.022881 -0.20339,0.050847 0,0.027966 0.09153,0.050847 0.20339,0.050847 0.201977,0 0.203389,0.00136 0.203389,0.1952561 0,0.3080329 -0.183999,0.9478953 -0.379588,1.3200227 -0.600892,1.1432643 -1.685853,1.7987964 -2.95092,1.7829427 -0.223729,-0.0028 -0.509746,-0.022669 -0.635593,-0.044144 z"
     id="path916"
     inkscape:connector-curvature="0" />
  <path
     style="fill:#b3b3b3;fill-opacity:1;stroke:#b4b4b4;stroke-width:0;stroke-linecap:round;stroke-miterlimit:0;stroke-dasharray:none;stroke-dashoffset:0;stroke-opacity:1;paint-order:stroke fill markers"
     d="m 22.118804,5.3688106 c 0.03671,-0.014688 0.08056,-0.012882 0.09746,0.00401 0.0169,0.016896 -0.01314,0.028914 -0.06674,0.026706 -0.05924,-0.00244 -0.07128,-0.014488 -0.03072,-0.03072 z"
     id="path918"
     inkscape:connector-curvature="0" />
  <path
     style="fill:#b3b3b3;fill-opacity:1;stroke:#b4b4b4;stroke-width:0;stroke-linecap:round;stroke-miterlimit:0;stroke-dasharray:none;stroke-dashoffset:0;stroke-opacity:1;paint-order:stroke fill markers"
     d="M 18.286154,8.707334 C 17.260998,8.503876 16.256805,7.6075904 15.88811,6.5669779 15.71272,6.0719543 15.666587,5.1410035 15.792577,4.6391699 c 0.226064,-0.9004342 0.849594,-1.7015886 1.65569,-2.1273467 1.907155,-1.0073076 4.145081,0.00723 4.731568,2.1449931 0.05909,0.2153714 0.100273,0.4657715 0.09153,0.5564447 -0.01473,0.1527357 -0.02806,0.1636864 -0.181159,0.1488959 -0.0929,-0.00897 -0.165254,0.00772 -0.165254,0.038136 0,0.029755 0.08009,0.0541 0.177966,0.0541 0.172494,0 0.177966,0.006 0.177966,0.1952561 0,0.2859484 -0.174179,0.9192693 -0.346953,1.2615324 -0.596565,1.1817909 -1.690156,1.8582599 -2.978977,1.842725 -0.254213,-0.00307 -0.555171,-0.024021 -0.668796,-0.046572 z"
     id="path920"
     inkscape:connector-curvature="0" />
  <path
     style="fill:#b3b3b3;fill-opacity:1;stroke:#b4b4b4;stroke-width:0;stroke-linecap:round;stroke-miterlimit:0;stroke-dasharray:none;stroke-dashoffset:0;stroke-opacity:1;paint-order:stroke fill markers"
     d="M 18.365626,8.7275804 C 17.277361,8.518158 16.265987,7.6359862 15.888585,6.5669779 15.72801,6.1121441 15.671731,5.2346443 15.770697,4.7288926 15.960739,3.7577094 16.682969,2.8630068 17.628338,2.4276351 18.134185,2.1946771 18.47082,2.124474 19.052067,2.1307259 c 0.408496,0.00439 0.588361,0.032489 0.914766,0.1428883 0.874285,0.2957074 1.538319,0.8695911 1.93067,1.66856 0.251322,0.5117826 0.398755,1.0132707 0.373824,1.2715444 -0.01408,0.1458921 -0.03161,0.162755 -0.155701,0.1497665 -0.07691,-0.00805 -0.13983,0.00911 -0.13983,0.038136 0,0.029025 0.06864,0.052772 0.152542,0.052772 0.143009,0 0.152542,0.012203 0.152542,0.1952561 0,0.2859484 -0.174179,0.9192693 -0.346953,1.2615324 -0.417442,0.8269494 -1.062178,1.394677 -1.938736,1.7071723 -0.205881,0.073397 -0.446977,0.1050462 -0.892277,0.1171307 -0.335593,0.00911 -0.667373,0.00555 -0.737288,-0.0079 z"
     id="path922"
     inkscape:connector-curvature="0" />
  <path
     style="fill:#b3b3b3;fill-opacity:1;stroke:#b4b4b4;stroke-width:0;stroke-linecap:round;stroke-miterlimit:0;stroke-dasharray:none;stroke-dashoffset:0;stroke-opacity:1;paint-order:stroke fill markers"
     d="M 4.519719,22.228059 C 3.3068169,22.07033 2.2681585,21.193195 1.8339028,19.959917 1.6991977,19.577357 1.6532096,18.773653 1.7374476,18.274233 c 0.1320075,-0.782629 0.709626,-1.643385 1.4139153,-2.106989 0.556805,-0.366521 0.9627345,-0.50164 1.597459,-0.531732 0.7006831,-0.03322 1.0630178,0.03801 1.6619383,0.32669 0.7862399,0.378975 1.3758029,1.054056 1.6637099,1.905035 0.068966,0.203848 0.1390602,0.501387 0.1557641,0.661198 L 8.2606042,18.819 8.037691,18.84908 c -0.1226019,0.01654 -0.3716415,0.03688 -0.5534212,0.04519 -0.2009278,0.0092 -0.1133105,0.01895 0.2234766,0.0249 l 0.5539846,0.0098 -0.029425,0.343221 c -0.1339332,1.562212 -1.4557592,2.847222 -3.0615957,2.976324 -0.1677966,0.01349 -0.4607428,0.0043 -0.6509915,-0.02046 z"
     id="path926"
     inkscape:connector-curvature="0" />
</svg>
