<?xml version="1.0" encoding="UTF-8" standalone="no"?>
<svg
   xmlns:dc="http://purl.org/dc/elements/1.1/"
   xmlns:cc="http://creativecommons.org/ns#"
   xmlns:rdf="http://www.w3.org/1999/02/22-rdf-syntax-ns#"
   xmlns:svg="http://www.w3.org/2000/svg"
   xmlns="http://www.w3.org/2000/svg"
   xmlns:sodipodi="http://sodipodi.sourceforge.net/DTD/sodipodi-0.dtd"
   xmlns:inkscape="http://www.inkscape.org/namespaces/inkscape"
   id="svg4588"
   height="24"
   width="24"
   version="1.1"
   inkscape:version="0.92.4 (5da689c313, 2019-01-14)"
   sodipodi:docname="shipdriver_pi_toggled.svg">
  <sodipodi:namedview
     pagecolor="#ffffff"
     bordercolor="#666666"
     borderopacity="1"
     objecttolerance="10"
     gridtolerance="10"
     guidetolerance="10"
     inkscape:pageopacity="0"
     inkscape:pageshadow="2"
     inkscape:window-width="1256"
     inkscape:window-height="760"
     id="namedview4213"
     showgrid="false"
     inkscape:zoom="7.3609507"
     inkscape:cx="-3.6177599"
     inkscape:cy="14.08178"
     inkscape:window-x="3"
     inkscape:window-y="0"
     inkscape:window-maximized="0"
     inkscape:current-layer="svg4588" />
  <defs
     id="defs4590">
    <linearGradient
       id="E"
       x1="73.009003"
       gradientUnits="userSpaceOnUse"
       x2="73.009003"
       gradientTransform="matrix(1.0329,0,0,1.0329,-59.414,-1122.2)"
       y1="1086.4"
       y2="1055.4">
      <stop
         id="stop4324"
         stop-color="#fff"
         offset="0" />
      <stop
         id="stop4326"
         stop-color="#939393"
         offset="1" />
    </linearGradient>
    <linearGradient
       id="F"
       x1="73.009003"
       gradientUnits="userSpaceOnUse"
       x2="73.009003"
       gradientTransform="matrix(1.0329,0,0,1.0329,-59.414,-1090.2)"
       y1="1086.4"
       y2="1070.9">
      <stop
         id="stop3297-5-3-1-9-9"
         stop-color="#fff"
         offset="0" />
      <stop
         id="stop4354-4-5-0-3"
         stop-color="#fff"
         stop-opacity="0"
         offset="1" />
    </linearGradient>
  </defs>
  <metadata
     id="metadata4593">
    <rdf:RDF>
      <cc:Work
         rdf:about="">
        <dc:format>image/svg+xml</dc:format>
        <dc:type
           rdf:resource="http://purl.org/dc/dcmitype/StillImage" />
        <dc:title></dc:title>
      </cc:Work>
    </rdf:RDF>
  </metadata>
  <rect
     style="fill:#898989;fill-opacity:1;stroke:#898989;stroke-width:0;stroke-linejoin:miter;stroke-miterlimit:4;stroke-dasharray:none;stroke-opacity:1;enable-background:new"
     id="rect4145"
     width="24.063313"
     height="24.109718"
     x="0.19502392"
     y="-0.0098363021" />
  <path
     style="fill:#b4b4b4;fill-opacity:1;stroke:#898989;stroke-width:0;stroke-miterlimit:4;stroke-dasharray:none;stroke-opacity:1"
     d="M 10.999291,22.802531 C 8.6631756,22.525214 6.6247296,21.503359 5.0203083,19.805321 3.7732319,18.485477 2.8904415,16.873784 2.4501698,15.113064 2.0727185,13.603574 2.0137651,11.883658 2.2885902,10.399085 3.0430872,6.3233792 5.9955884,3.0974799 9.8002583,2.1918453 11.194513,1.8599681 12.834884,1.8750375 14.244976,2.2326773 c 0.945525,0.2398133 2.276406,0.8581119 3.08238,1.432008 0.78917,0.5619304 1.659233,1.4020487 2.249918,2.1724833 0.812536,1.0597972 1.53023,2.5727546 1.849906,3.8997506 0.532978,2.2124278 0.399761,4.4696468 -0.386927,6.5560508 -1.159523,3.075214 -3.702199,5.435184 -6.712706,6.230358 -0.30364,0.0802 -0.744976,0.176814 -0.980748,0.214696 -0.507823,0.08159 -1.884828,0.11943 -2.347508,0.06451 z M 10.680646,19.620672 C 10.533329,16.733509 8.9773267,14.026331 6.8457564,12.948619 6.2105838,12.627479 5.2665574,12.375915 4.6966062,12.375915 c -0.1640928,0 -0.1682715,0.0037 -0.1682715,0.147461 0,0.283652 0.086209,1.05085 0.1640668,1.460071 0.2113084,1.110645 0.7381148,2.317762 1.4004682,3.209014 1.0466849,1.408403 2.4066635,2.352297 4.0490713,2.81026 0.202089,0.05635 0.411583,0.103416 0.46554,0.104591 l 0.0981,0.0022 -0.02494,-0.488776 z m 3.046942,0.379219 c 3.12498,-0.847169 5.415149,-3.775413 5.568694,-7.120216 l 0.02374,-0.517239 -0.363528,0.02923 c -2.052228,0.165049 -3.878484,1.585548 -4.933106,3.837067 -0.481557,1.028078 -0.762702,2.179164 -0.860292,3.522272 -0.02572,0.35394 -0.02486,0.358431 0.06862,0.35804 0.05206,-2.17e-4 0.275205,-0.04934 0.495867,-0.109161 z M 12.46769,13.573306 c 0.435739,-0.226872 0.691,-0.661617 0.690294,-1.175667 -5.63e-4,-0.411666 -0.119323,-0.693927 -0.41154,-0.97814 -0.765281,-0.744318 -1.977972,-0.215397 -2.043416,0.891246 -0.03827,0.647149 0.346908,1.204463 0.949483,1.373802 0.21467,0.06033 0.581908,0.01021 0.815179,-0.111241 z m 6.39065,-3.8103818 c 0,-0.0273 -0.06756,-0.217918 -0.150146,-0.423606 C 17.757503,6.9713694 15.842493,5.2680796 13.506894,4.7130626 10.187169,3.924185 6.7945729,5.698062 5.3014084,9.0034422 c -0.1308632,0.289689 -0.2498149,0.579259 -0.2643362,0.643491 -0.025208,0.111498 -0.018379,0.117545 0.1508982,0.133611 0.097516,0.0093 3.2132421,0.02024 6.9238356,0.02442 5.034902,0.0057 6.746534,-0.005 6.746534,-0.04204 z"
     id="path843"
     inkscape:connector-curvature="0" />
</svg>
