<?xml version="1.0" encoding="UTF-8" standalone="no"?>
<svg
   xmlns:dc="http://purl.org/dc/elements/1.1/"
   xmlns:cc="http://creativecommons.org/ns#"
   xmlns:rdf="http://www.w3.org/1999/02/22-rdf-syntax-ns#"
   xmlns:svg="http://www.w3.org/2000/svg"
   xmlns="http://www.w3.org/2000/svg"
   xmlns:sodipodi="http://sodipodi.sourceforge.net/DTD/sodipodi-0.dtd"
   xmlns:inkscape="http://www.inkscape.org/namespaces/inkscape"
   id="svg4588"
   height="24.16053"
   width="24.16053"
   version="1.1"
   inkscape:version="0.92.4 (5da689c313, 2019-01-14)"
   sodipodi:docname="shipdriver_pi.svg">
  <sodipodi:namedview
     pagecolor="#ffffff"
     bordercolor="#666666"
     borderopacity="1"
     objecttolerance="10"
     gridtolerance="10"
     guidetolerance="10"
     inkscape:pageopacity="0"
     inkscape:pageshadow="2"
     inkscape:window-width="1256"
     inkscape:window-height="760"
     id="namedview4213"
     showgrid="false"
     inkscape:zoom="10.409956"
     inkscape:cx="-1.6933109"
     inkscape:cy="13.551375"
     inkscape:window-x="3"
     inkscape:window-y="0"
     inkscape:window-maximized="0"
     inkscape:current-layer="svg4588"
     fit-margin-top="0"
     fit-margin-left="0"
     fit-margin-right="0"
     fit-margin-bottom="0" />
  <defs
     id="defs4590">
    <linearGradient
       id="E"
       x1="73.009003"
       gradientUnits="userSpaceOnUse"
       x2="73.009003"
       gradientTransform="matrix(1.0329,0,0,1.0329,-59.414,-1122.2)"
       y1="1086.4"
       y2="1055.4">
      <stop
         id="stop4324"
         stop-color="#fff"
         offset="0" />
      <stop
         id="stop4326"
         stop-color="#939393"
         offset="1" />
    </linearGradient>
    <linearGradient
       id="F"
       x1="73.009003"
       gradientUnits="userSpaceOnUse"
       x2="73.009003"
       gradientTransform="matrix(1.0329,0,0,1.0329,-59.414,-1090.2)"
       y1="1086.4"
       y2="1070.9">
      <stop
         id="stop3297-5-3-1-9-9"
         stop-color="#fff"
         offset="0" />
      <stop
         id="stop4354-4-5-0-3"
         stop-color="#fff"
         stop-opacity="0"
         offset="1" />
    </linearGradient>
  </defs>
  <metadata
     id="metadata4593">
    <rdf:RDF>
      <cc:Work
         rdf:about="">
        <dc:format>image/svg+xml</dc:format>
        <dc:type
           rdf:resource="http://purl.org/dc/dcmitype/StillImage" />
        <dc:title></dc:title>
      </cc:Work>
    </rdf:RDF>
  </metadata>
  <rect
     style="display:inline;fill:#282828;fill-opacity:1;stroke:#898989;stroke-width:0;stroke-linejoin:miter;stroke-miterlimit:4;stroke-dasharray:none;stroke-opacity:1;enable-background:new"
     id="rect4145"
     width="24.339739"
     height="24.569763"
     x="0.029990239"
     y="-0.036025181" />
  <path
     style="fill:#b4b4b4;fill-opacity:1;stroke:#898989;stroke-width:0;stroke-miterlimit:4;stroke-dasharray:none;stroke-opacity:1"
     d="M 10.954614,22.485773 C 8.5637498,22.217624 6.4775309,21.229548 4.8355087,19.587642 3.5592059,18.311429 2.6557269,16.753013 2.205137,15.050498 1.8188393,13.590906 1.7585047,11.927846 2.0397706,10.492348 2.8119499,6.5513733 5.8336455,3.4321125 9.7274807,2.5564156 11.154411,2.235509 12.833225,2.2500808 14.276364,2.5958987 c 0.967684,0.2318854 2.329755,0.829745 3.154619,1.3846697 0.807664,0.5433548 1.698118,1.3557015 2.302646,2.100668 0.831579,1.0247634 1.566093,2.487707 1.89326,3.7708357 0.545469,2.1392929 0.40913,4.3218939 -0.395995,6.3393279 -1.186697,2.973556 -3.788963,5.255513 -6.870024,6.0244 -0.310756,0.07755 -0.762435,0.170969 -1.003732,0.207599 -0.519725,0.07889 -1.929001,0.115482 -2.402524,0.06237 z M 10.6285,19.409097 C 10.477732,16.617376 8.8852633,13.999689 6.7037379,12.957602 6.0536797,12.647078 5.0875288,12.403831 4.5042207,12.403831 c -0.1679383,0 -0.1722155,0.0035 -0.1722155,0.142586 0,0.274275 0.08823,1.016111 0.167912,1.411805 0.2162609,1.073931 0.7554135,2.241144 1.4332895,3.102934 1.0712148,1.361845 2.4630656,2.274537 4.1439643,2.717361 0.206825,0.05449 0.421228,0.1 0.47645,0.101133 l 0.100404,0.0021 -0.02553,-0.472619 z m 3.118351,0.366683 c 3.198216,-0.819164 5.542057,-3.650609 5.6992,-6.884842 l 0.0243,-0.500141 -0.372047,0.02827 c -2.100324,0.159593 -3.96938,1.533135 -5.048718,3.710226 -0.492843,0.994093 -0.780577,2.107127 -0.880453,3.405835 -0.02632,0.34224 -0.02544,0.346583 0.07023,0.346205 0.05328,-2.1e-4 0.281655,-0.04771 0.507487,-0.105552 z m -1.289425,-6.214141 c 0.445951,-0.219372 0.707194,-0.639745 0.706471,-1.136803 -5.76e-4,-0.398058 -0.122119,-0.670988 -0.421185,-0.945806 -0.783216,-0.719713 -2.024327,-0.208276 -2.091305,0.861784 -0.03917,0.625757 0.355038,1.164648 0.971735,1.328389 0.219701,0.05834 0.595546,0.0099 0.834284,-0.107564 z m 6.54042,-3.6844216 c 0,-0.026394 -0.06915,-0.2107146 -0.153664,-0.4096032 C 17.87121,7.1779428 15.911321,5.5309588 13.520985,4.9942891 10.123458,4.2314891 6.6513545,5.9467273 5.1231968,9.1428418 4.9892667,9.422954 4.8675275,9.7029523 4.8526654,9.7650603 c -0.025799,0.1078125 -0.01881,0.1136592 0.1544349,0.1291948 0.099801,0.00895 3.288547,0.019575 7.0861007,0.023612 5.152899,0.00548 6.904645,-0.00483 6.904645,-0.04065 z"
     id="path843"
     inkscape:connector-curvature="0" />
</svg>
