<?xml version="1.0" encoding="UTF-8" standalone="no"?>
<svg
   xmlns:dc="http://purl.org/dc/elements/1.1/"
   xmlns:cc="http://creativecommons.org/ns#"
   xmlns:rdf="http://www.w3.org/1999/02/22-rdf-syntax-ns#"
   xmlns:svg="http://www.w3.org/2000/svg"
   xmlns="http://www.w3.org/2000/svg"
   xmlns:sodipodi="http://sodipodi.sourceforge.net/DTD/sodipodi-0.dtd"
   xmlns:inkscape="http://www.inkscape.org/namespaces/inkscape"
   id="svg4588"
   height="32.16053"
   width="32.16053"
   version="1.1"
   inkscape:version="0.92.4 (5da689c313, 2019-01-14)"
   sodipodi:docname="shipdriver_pi_toggled.svg">
  <sodipodi:namedview
     pagecolor="#ffffff"
     bordercolor="#666666"
     borderopacity="1"
     objecttolerance="10"
     gridtolerance="10"
     guidetolerance="10"
     inkscape:pageopacity="0"
     inkscape:pageshadow="2"
     inkscape:window-width="1256"
     inkscape:window-height="760"
     id="namedview4213"
     showgrid="false"
     inkscape:zoom="6.0656504"
     inkscape:cx="-14.375108"
     inkscape:cy="16.138551"
     inkscape:window-x="3"
     inkscape:window-y="0"
     inkscape:window-maximized="0"
     inkscape:current-layer="svg4588"
     fit-margin-top="0"
     fit-margin-left="0"
     fit-margin-right="0"
     fit-margin-bottom="0" />
  <defs
     id="defs4590">
    <linearGradient
       id="E"
       x1="73.009003"
       gradientUnits="userSpaceOnUse"
       x2="73.009003"
       gradientTransform="matrix(1.0329,0,0,1.0329,-59.414,-1122.2)"
       y1="1086.4"
       y2="1055.4">
      <stop
         id="stop4324"
         stop-color="#fff"
         offset="0" />
      <stop
         id="stop4326"
         stop-color="#939393"
         offset="1" />
    </linearGradient>
    <linearGradient
       id="F"
       x1="73.009003"
       gradientUnits="userSpaceOnUse"
       x2="73.009003"
       gradientTransform="matrix(1.0329,0,0,1.0329,-59.414,-1090.2)"
       y1="1086.4"
       y2="1070.9">
      <stop
         id="stop3297-5-3-1-9-9"
         stop-color="#fff"
         offset="0" />
      <stop
         id="stop4354-4-5-0-3"
         stop-color="#fff"
         stop-opacity="0"
         offset="1" />
    </linearGradient>
  </defs>
  <metadata
     id="metadata4593">
    <rdf:RDF>
      <cc:Work
         rdf:about="">
        <dc:format>image/svg+xml</dc:format>
        <dc:type
           rdf:resource="http://purl.org/dc/dcmitype/StillImage" />
        <dc:title></dc:title>
      </cc:Work>
    </rdf:RDF>
  </metadata>
  <g
     id="g45718"
     style="fill:#898989;fill-opacity:1;stroke:#898989;stroke-opacity:1;enable-background:new"
     transform="matrix(1.1949089,0,0,1.1720644,-3.1475103,-4.5176764)">
    <rect
       style="fill:#898989;fill-opacity:1;stroke:#898989;stroke-width:0;stroke-linejoin:miter;stroke-miterlimit:4;stroke-dasharray:none;stroke-opacity:1"
       id="rect4145"
       width="26.914627"
       height="27.439217"
       x="2.6341012"
       y="3.8544614" />
  </g>
  <g
     id="g4660"
     transform="matrix(0.87795993,0,0,0.87795993,1.9417415,2.0037636)"
     style="fill:#282828;fill-opacity:1">
    <g
       id="g4603"
       style="fill:#282828;fill-opacity:1">
      <g
         id="steering_x5F_wheel"
         style="fill:#282828;fill-opacity:1">
        <path
           id="path4600"
           d="M 16,0 C 7.164,0 0,7.164 0,16 0,24.836 7.164,32 16,32 24.836,32 32,24.836 32,16 32,7.164 24.836,0 16,0 Z m 0,4 c 5.207,0 9.605,3.354 11.266,8 H 4.734 C 6.395,7.354 10.793,4 16,4 Z m 0,14 c -1.105,0 -2,-0.895 -2,-2 0,-1.105 0.895,-2 2,-2 1.105,0 2,0.895 2,2 0,1.105 -0.895,2 -2,2 z M 4,16 c 5.465,0 9.891,5.266 9.984,11.797 C 8.328,26.828 4,21.926 4,16 Z M 18.016,27.797 C 18.109,21.266 22.535,16 28,16 c 0,5.926 -4.328,10.828 -9.984,11.797 z"
           style="fill:#282828;fill-opacity:1"
           inkscape:connector-curvature="0" />
      </g>
    </g>
    <g
       id="g4605"
       style="fill:#282828;fill-opacity:1" />
    <g
       id="g4607"
       style="fill:#282828;fill-opacity:1" />
    <g
       id="g4609"
       style="fill:#282828;fill-opacity:1" />
    <g
       id="g4611"
       style="fill:#282828;fill-opacity:1" />
    <g
       id="g4613"
       style="fill:#282828;fill-opacity:1" />
    <g
       id="g4615"
       style="fill:#282828;fill-opacity:1" />
    <g
       id="g4617"
       style="fill:#282828;fill-opacity:1" />
    <g
       id="g4619"
       style="fill:#282828;fill-opacity:1" />
    <g
       id="g4621"
       style="fill:#282828;fill-opacity:1" />
    <g
       id="g4623"
       style="fill:#282828;fill-opacity:1" />
    <g
       id="g4625"
       style="fill:#282828;fill-opacity:1" />
    <g
       id="g4627"
       style="fill:#282828;fill-opacity:1" />
    <g
       id="g4629"
       style="fill:#282828;fill-opacity:1" />
    <g
       id="g4631"
       style="fill:#282828;fill-opacity:1" />
    <g
       id="g4633"
       style="fill:#282828;fill-opacity:1" />
  </g>
  <path
     style="fill:#282828;fill-opacity:1;stroke:#898989;stroke-width:0;stroke-miterlimit:4;stroke-dasharray:none;stroke-opacity:1"
     d="m 14.660138,30.009194 c -4.13722,-0.39603 -7.922598,-2.6467 -10.2806382,-6.11253 -1.1544918,-1.69687 -1.9023835,-3.59633 -2.2605894,-5.74135 -0.1527417,-0.91465 -0.1527417,-3.28207 0,-4.19672 0.6761066,-4.0486804 2.7940569,-7.3500704 6.1555465,-9.5950704 1.6714813,-1.11631 3.6160631,-1.86826 5.6608991,-2.189 0.947898,-0.14868 3.204342,-0.14809 4.105474,10e-4 2.565437,0.42465 4.857364,1.43528 6.761385,2.98146 0.617788,0.50168 1.639637,1.52204 2.10151,2.09845 3.032069,3.7839604 3.90574,8.8004404 2.330225,13.3797604 -1.276474,3.71015 -4.166445,6.79784 -7.798064,8.33158 -2.104205,0.88866 -4.511929,1.25906 -6.775748,1.04236 z m -0.437158,-3.97968 c 0,-0.56536 -0.16621,-1.73364 -0.350885,-2.46634 -1.078156,-4.27763 -4.2155114,-7.25221 -7.9269263,-7.51565 l -0.5236458,-0.0372 v 0.2357 c 0,0.43346 0.1219305,1.43716 0.2425607,1.99669 0.6732281,3.12272 2.7706957,5.81251 5.6409534,7.23394 0.721451,0.35729 1.224048,0.54515 2.014482,0.753 0.930373,0.24464 0.903461,0.2506 0.903461,-0.20017 z m 4.138433,0.28381 c 3.323365,-0.77183 6.166441,-3.20171 7.431087,-6.35109 0.423028,-1.05348 0.728179,-2.49937 0.728861,-3.45355 l 3.44e-4,-0.48088 h -0.240243 c -0.465263,0 -1.471194,0.18397 -2.059217,0.37659 -1.259842,0.41269 -2.282129,1.0549 -3.296169,2.07067 -1.908995,1.91224 -2.929156,4.30156 -3.179665,7.4471 -0.038,0.47713 -0.03723,0.48087 0.09892,0.48001 0.07547,-4.6e-4 0.307706,-0.0405 0.516085,-0.0888 z m -1.594039,-8.6737 c 0.363023,-0.18571 0.678906,-0.51504 0.847142,-0.88322 0.18796,-0.41133 0.182044,-1.0504 -0.01349,-1.45719 -0.322885,-0.67174 -0.973063,-1.05267 -1.716844,-1.00586 -0.651465,0.041 -1.140889,0.35235 -1.460319,0.92899 -0.154441,0.27879 -0.171739,0.36286 -0.171739,0.83461 0,0.47273 0.01712,0.5555 0.173179,0.83726 0.462294,0.83466 1.513576,1.16925 2.342071,0.74541 z m 9.086387,-5.21109 c -0.08029,-0.32652 -0.515019,-1.24218 -0.854601,-1.80004 -1.318242,-2.1655804 -3.273764,-3.7572204 -5.602944,-4.5603604 -3.039934,-1.04821 -6.381081,-0.64238 -9.073344,1.10208 -1.4141267,0.91629 -2.5961291,2.16523 -3.453114,3.6486604 -0.3371102,0.58354 -0.8150492,1.6516 -0.7709725,1.72292 0.015989,0.0259 4.4762675,0.047 9.9117315,0.047 h 9.88266 z"
     id="path841"
     inkscape:connector-curvature="0" />
  <path
     style="fill:#b4b4b4;fill-opacity:1;stroke:#898989;stroke-width:0;stroke-miterlimit:4;stroke-dasharray:none;stroke-opacity:1"
     d="m 14.660138,30.016044 c -3.335283,-0.37204 -6.2455823,-1.74295 -8.536222,-4.02102 -1.780457,-1.77069 -3.0408206,-3.93292 -3.6693987,-6.29508 -0.5388896,-2.02512 -0.6230571,-4.33254 -0.230688,-6.32423 1.077199,-5.4679204 5.2924989,-9.7957604 10.7244437,-11.0107504 1.990584,-0.44524 4.33255,-0.42502 6.345745,0.0548 1.34993,0.32173 3.250035,1.15124 4.400729,1.92117 1.126701,0.75388 2.368894,1.88097 3.212218,2.91458 1.160062,1.42181 2.184717,3.4515804 2.64112,5.2318604 0.760935,2.96818 0.57074,5.99644 -0.552418,8.79554 -1.655456,4.12567 -5.285647,7.29178 -9.583762,8.35858 -0.433508,0.1076 -1.063606,0.23721 -1.400218,0.28803 -0.725022,0.10947 -2.690979,0.16023 -3.351549,0.0865 z m -0.454932,-4.26875 c -0.210324,-3.87338 -2.431836,-7.5053 -5.4750889,-8.95115 -0.9068386,-0.43084 -2.2546302,-0.76834 -3.0683516,-0.76834 -0.2342759,0 -0.2402426,0.005 -0.2402426,0.19784 0,0.38054 0.1230815,1.40981 0.2342391,1.95881 0.3016865,1.49003 1.0538105,3.10949 1.9994553,4.30518 1.4943569,1.8895 3.4360047,3.15582 5.7808777,3.77022 0.288524,0.0756 0.587619,0.13874 0.664654,0.14032 l 0.140064,0.003 -0.03561,-0.65574 z m 4.350135,0.50876 c 4.461548,-1.13655 7.731233,-5.06505 7.95045,-9.55241 l 0.0339,-0.69392 -0.519011,0.0392 c -2.929975,0.22143 -5.53733,2.12716 -7.043019,5.14777 -0.687521,1.37926 -1.088913,2.92355 -1.228242,4.72544 -0.03672,0.47485 -0.03549,0.48087 0.09797,0.48035 0.07433,-2.9e-4 0.392912,-0.0662 0.707951,-0.14645 z m -1.798763,-8.62184 c 0.622107,-0.30437 0.986544,-0.88762 0.985536,-1.57726 -8.04e-4,-0.55229 -0.170358,-0.93097 -0.587558,-1.31226 -1.092595,-0.99857 -2.82396,-0.28898 -2.917395,1.19568 -0.05464,0.86821 0.495283,1.6159 1.355582,1.84308 0.306485,0.0809 0.830793,0.0137 1.163835,-0.14924 z m 9.123961,-5.11197 c 0,-0.0366 -0.09646,-0.29235 -0.214363,-0.5683 -1.357307,-3.1768204 -4.091375,-5.4619304 -7.425921,-6.2065404 -4.739588,-1.05835 -9.5832133,1.32147 -11.7150108,5.7559304 -0.1868341,0.38864 -0.3566616,0.77713 -0.3773944,0.8633 -0.03599,0.14959 -0.02624,0.1577 0.2154384,0.17925 0.139224,0.0124 4.5875608,0.0272 9.8851928,0.0328 7.188353,0.008 9.632058,-0.007 9.632058,-0.0564 z"
     id="path843"
     inkscape:connector-curvature="0" />
</svg>
