<?xml version="1.0" encoding="UTF-8" standalone="no"?>
<svg
   xmlns:osb="http://www.openswatchbook.org/uri/2009/osb"
   xmlns:dc="http://purl.org/dc/elements/1.1/"
   xmlns:cc="http://creativecommons.org/ns#"
   xmlns:rdf="http://www.w3.org/1999/02/22-rdf-syntax-ns#"
   xmlns:svg="http://www.w3.org/2000/svg"
   xmlns="http://www.w3.org/2000/svg"
   xmlns:sodipodi="http://sodipodi.sourceforge.net/DTD/sodipodi-0.dtd"
   xmlns:inkscape="http://www.inkscape.org/namespaces/inkscape"
   width="24"
   height="24"
   viewBox="0 0 24 24"
   fill="none"
   stroke="currentColor"
   stroke-width="2"
   stroke-linecap="round"
   stroke-linejoin="round"
   id="svg2"
   version="1.1"
   inkscape:version="0.92.4 (5da689c313, 2019-01-14)"
   sodipodi:docname="dr_pi_toggled.svg">
  <metadata
     id="metadata14">
    <rdf:RDF>
      <cc:Work
         rdf:about="">
        <dc:format>image/svg+xml</dc:format>
        <dc:type
           rdf:resource="http://purl.org/dc/dcmitype/StillImage" />
        <dc:title></dc:title>
      </cc:Work>
    </rdf:RDF>
  </metadata>
  <defs
     id="defs12">
    <linearGradient
       id="linearGradient3754"
       osb:paint="gradient">
      <stop
         style="stop-color:#000000;stop-opacity:1;"
         offset="0"
         id="stop3756" />
      <stop
         style="stop-color:#000000;stop-opacity:0;"
         offset="1"
         id="stop3758" />
    </linearGradient>
  </defs>
  <sodipodi:namedview
     pagecolor="#ffffff"
     bordercolor="#666666"
     borderopacity="1"
     objecttolerance="10"
     gridtolerance="10"
     guidetolerance="10"
     inkscape:pageopacity="0"
     inkscape:pageshadow="2"
     inkscape:window-width="1063"
     inkscape:window-height="797"
     id="namedview10"
     showgrid="false"
     inkscape:zoom="8.8273256"
     inkscape:cx="-3.5801373"
     inkscape:cy="15.535438"
     inkscape:window-x="0"
     inkscape:window-y="0"
     inkscape:window-maximized="0"
     inkscape:current-layer="svg2" />
  <rect
     style="fill:#898989;fill-opacity:1;stroke:#282828;stroke-width:0;stroke-linejoin:miter;stroke-miterlimit:4;stroke-dasharray:none;stroke-opacity:1"
     id="rect4139"
     width="24.017662"
     height="24.16148"
     x="0.071909167"
     y="-0.017661467" />
  <path
     style="fill:#b4b4b4;fill-opacity:1;stroke:#898989;stroke-width:0;stroke-miterlimit:4;stroke-dasharray:none;stroke-opacity:1"
     d="M 10.961376,22.743399 C 8.6252608,22.466082 6.5868148,21.444227 4.9823936,19.746189 3.7353172,18.426345 2.8525267,16.814652 2.412255,15.053932 2.0348037,13.544442 1.9758503,11.824526 2.2506754,10.339953 3.0051724,6.2642467 5.9576737,3.0383477 9.7623438,2.1327127 c 1.3942542,-0.331877 3.0346262,-0.316807 4.4447182,0.04083 0.945525,0.239814 2.276406,0.858112 3.08238,1.432008 0.78917,0.561931 1.659233,1.402049 2.249918,2.172484 0.812536,1.059797 1.53023,2.572754 1.849906,3.89975 0.532978,2.2124283 0.399761,4.4696473 -0.386927,6.5560513 -1.159523,3.075214 -3.702199,5.435184 -6.712706,6.230358 -0.30364,0.0802 -0.744976,0.176814 -0.980748,0.214696 -0.507823,0.08159 -1.884829,0.11943 -2.347509,0.06451 z M 10.642731,19.56154 C 10.495414,16.674377 8.9394118,13.967199 6.8078418,12.889487 6.1726688,12.568347 5.2286427,12.316783 4.6586915,12.316783 c -0.1640928,0 -0.1682715,0.0037 -0.1682715,0.147461 0,0.283652 0.086209,1.05085 0.1640668,1.460071 0.2113084,1.110645 0.7381148,2.317762 1.4004682,3.209014 1.0466848,1.408403 2.4066638,2.352297 4.049071,2.81026 0.202089,0.05635 0.411583,0.103416 0.46554,0.104591 l 0.0981,0.0022 -0.02494,-0.488776 z m 3.046943,0.379219 c 3.12498,-0.847169 5.415149,-3.775413 5.568694,-7.120216 l 0.02374,-0.517239 -0.363528,0.02923 c -2.052228,0.165049 -3.878484,1.585548 -4.933106,3.837067 -0.481557,1.028078 -0.762702,2.179164 -0.860292,3.522272 -0.02572,0.35394 -0.02486,0.358431 0.06862,0.35804 0.05206,-2.17e-4 0.275205,-0.04934 0.495867,-0.109161 z m -1.259898,-6.426585 c 0.435739,-0.226872 0.691,-0.661617 0.690294,-1.175667 -5.63e-4,-0.411666 -0.119323,-0.693927 -0.41154,-0.97814 -0.765282,-0.744318 -1.977973,-0.215397 -2.043417,0.891246 -0.03827,0.647149 0.346908,1.204463 0.949483,1.373802 0.21467,0.06033 0.581909,0.01021 0.81518,-0.111241 z m 6.39065,-3.8103823 c 0,-0.0273 -0.06756,-0.217918 -0.150146,-0.423606 -0.950691,-2.367949 -2.865701,-4.071238 -5.2013,-4.626255 -3.319726,-0.788878 -6.7123222,0.984999 -8.2054863,4.290379 -0.1308632,0.289689 -0.2498149,0.579259 -0.2643362,0.643491 -0.025208,0.111498 -0.018379,0.117545 0.1508982,0.133611 0.097516,0.0093 3.2132421,0.02024 6.9238353,0.02442 5.034903,0.0057 6.746535,-0.005 6.746535,-0.04204 z"
     id="path843"
     inkscape:connector-curvature="0" />
</svg>
