<?xml version="1.0" encoding="UTF-8" standalone="no"?>
<svg
   xmlns:osb="http://www.openswatchbook.org/uri/2009/osb"
   xmlns:dc="http://purl.org/dc/elements/1.1/"
   xmlns:cc="http://creativecommons.org/ns#"
   xmlns:rdf="http://www.w3.org/1999/02/22-rdf-syntax-ns#"
   xmlns:svg="http://www.w3.org/2000/svg"
   xmlns="http://www.w3.org/2000/svg"
   xmlns:sodipodi="http://sodipodi.sourceforge.net/DTD/sodipodi-0.dtd"
   xmlns:inkscape="http://www.inkscape.org/namespaces/inkscape"
   width="24"
   height="24"
   viewBox="0 0 24 24"
   fill="none"
   stroke="currentColor"
   stroke-width="2"
   stroke-linecap="round"
   stroke-linejoin="round"
   id="svg2"
   version="1.1"
   inkscape:version="0.92.4 (5da689c313, 2019-01-14)"
   sodipodi:docname="dr_pi.svg">
  <metadata
     id="metadata14">
    <rdf:RDF>
      <cc:Work
         rdf:about="">
        <dc:format>image/svg+xml</dc:format>
        <dc:type
           rdf:resource="http://purl.org/dc/dcmitype/StillImage" />
        <dc:title></dc:title>
      </cc:Work>
    </rdf:RDF>
  </metadata>
  <defs
     id="defs12">
    <linearGradient
       id="linearGradient3754"
       osb:paint="gradient">
      <stop
         style="stop-color:#000000;stop-opacity:1;"
         offset="0"
         id="stop3756" />
      <stop
         style="stop-color:#000000;stop-opacity:0;"
         offset="1"
         id="stop3758" />
    </linearGradient>
  </defs>
  <sodipodi:namedview
     pagecolor="#ffffff"
     bordercolor="#666666"
     borderopacity="1"
     objecttolerance="10"
     gridtolerance="10"
     guidetolerance="10"
     inkscape:pageopacity="0"
     inkscape:pageshadow="2"
     inkscape:window-width="1063"
     inkscape:window-height="797"
     id="namedview10"
     showgrid="false"
     inkscape:zoom="12.483724"
     inkscape:cx="3.9702189"
     inkscape:cy="9.7827044"
     inkscape:window-x="0"
     inkscape:window-y="0"
     inkscape:window-maximized="0"
     inkscape:current-layer="svg2" />
  <rect
     style="fill:#282828;fill-opacity:1;stroke:#282828;stroke-width:0;stroke-linejoin:miter;stroke-miterlimit:4;stroke-dasharray:none;stroke-opacity:1"
     id="rect4139"
     width="24.017662"
     height="24.16148"
     x="0.071909167"
     y="-0.017661467" />
  <path
     style="fill:#b4b4b4;fill-opacity:1;stroke:#898989;stroke-width:0;stroke-miterlimit:4;stroke-dasharray:none;stroke-opacity:1"
     d="M 11.060263,22.292198 C 8.6693978,22.024049 6.5831788,21.035973 4.9411568,19.394067 c -1.276303,-1.276213 -2.179782,-2.834629 -2.630371,-4.537144 -0.386298,-1.459592 -0.446633,-3.122652 -0.165367,-4.55815 0.772179,-3.9409746 3.793875,-7.0602354 7.68771,-7.9359323 1.4269312,-0.3209066 3.1057442,-0.3063348 4.5488832,0.039483 0.967684,0.2318854 2.329755,0.829745 3.154619,1.3846697 0.807664,0.5433548 1.698118,1.3557015 2.302646,2.100668 0.831579,1.0247637 1.566093,2.4877067 1.89326,3.7708357 0.545469,2.1392929 0.40913,4.3218939 -0.395995,6.3393279 -1.186697,2.973556 -3.788963,5.255513 -6.870024,6.0244 -0.310756,0.07755 -0.762435,0.170969 -1.003732,0.207599 -0.519725,0.07889 -1.929,0.115482 -2.402523,0.06237 z m -0.326114,-3.076676 c -0.150768,-2.791721 -1.7432372,-5.409408 -3.9247632,-6.451495 -0.650058,-0.310524 -1.616209,-0.553771 -2.199517,-0.553771 -0.167938,0 -0.172215,0.0035 -0.172215,0.142586 0,0.274275 0.08823,1.016111 0.167912,1.411805 0.216261,1.073931 0.755413,2.241144 1.433289,3.102934 1.071215,1.361845 2.463066,2.274537 4.1439652,2.717361 0.206825,0.05449 0.421228,0.1 0.47645,0.101133 l 0.100404,0.0021 -0.02553,-0.472619 z m 3.11835,0.366683 c 3.198216,-0.819164 5.542057,-3.650609 5.6992,-6.884842 l 0.0243,-0.500141 -0.372047,0.02827 c -2.100324,0.159593 -3.96938,1.533135 -5.048718,3.710226 -0.492843,0.994093 -0.780577,2.107127 -0.880453,3.405835 -0.02632,0.34224 -0.02544,0.346583 0.07023,0.346205 0.05328,-2.1e-4 0.281655,-0.04771 0.507487,-0.105552 z m -1.289425,-6.214141 c 0.445951,-0.219372 0.707194,-0.639745 0.706471,-1.136803 -5.76e-4,-0.398058 -0.122119,-0.670988 -0.421185,-0.945806 -0.783216,-0.719713 -2.024326,-0.208276 -2.091304,0.861784 -0.03917,0.625757 0.355038,1.164648 0.971735,1.328389 0.219701,0.05834 0.595545,0.0099 0.834283,-0.107564 z m 6.54042,-3.6844218 c 0,-0.02639 -0.06915,-0.210714 -0.153664,-0.409603 -0.972972,-2.289671 -2.932861,-3.9366553 -5.323197,-4.473325 -3.397526,-0.7628 -6.8696302,0.9524382 -8.3977882,4.148553 -0.13393,0.280112 -0.255669,0.56011 -0.270531,0.622218 -0.0258,0.107813 -0.01881,0.113659 0.154435,0.129195 0.0998,0.009 3.288547,0.01957 7.0861002,0.02361 5.152899,0.0055 6.904645,-0.0048 6.904645,-0.04065 z"
     id="path843"
     inkscape:connector-curvature="0" />
</svg>
