<?xml version="1.0" encoding="UTF-8" standalone="no"?>
<svg
   xmlns:dc="http://purl.org/dc/elements/1.1/"
   xmlns:cc="http://creativecommons.org/ns#"
   xmlns:rdf="http://www.w3.org/1999/02/22-rdf-syntax-ns#"
   xmlns:svg="http://www.w3.org/2000/svg"
   xmlns="http://www.w3.org/2000/svg"
   xmlns:sodipodi="http://sodipodi.sourceforge.net/DTD/sodipodi-0.dtd"
   xmlns:inkscape="http://www.inkscape.org/namespaces/inkscape"
   id="svg4588"
   height="24"
   width="24"
   version="1.1"
   inkscape:version="0.92.4 (5da689c313, 2019-01-14)"
   sodipodi:docname="shipdriver_pi_toggled.svg">
  <sodipodi:namedview
     pagecolor="#ffffff"
     bordercolor="#666666"
     borderopacity="1"
     objecttolerance="10"
     gridtolerance="10"
     guidetolerance="10"
     inkscape:pageopacity="0"
     inkscape:pageshadow="2"
     inkscape:window-width="1256"
     inkscape:window-height="760"
     id="namedview4213"
     showgrid="false"
     inkscape:zoom="10.270294"
     inkscape:cx="10.794963"
     inkscape:cy="14.08178"
     inkscape:window-x="3"
     inkscape:window-y="0"
     inkscape:window-maximized="0"
     inkscape:current-layer="svg4588" />
  <defs
     id="defs4590">
    <linearGradient
       id="E"
       x1="73.009003"
       gradientUnits="userSpaceOnUse"
       x2="73.009003"
       gradientTransform="matrix(1.0329,0,0,1.0329,-59.414,-1122.2)"
       y1="1086.4"
       y2="1055.4">
      <stop
         id="stop4324"
         stop-color="#fff"
         offset="0" />
      <stop
         id="stop4326"
         stop-color="#939393"
         offset="1" />
    </linearGradient>
    <linearGradient
       id="F"
       x1="73.009003"
       gradientUnits="userSpaceOnUse"
       x2="73.009003"
       gradientTransform="matrix(1.0329,0,0,1.0329,-59.414,-1090.2)"
       y1="1086.4"
       y2="1070.9">
      <stop
         id="stop3297-5-3-1-9-9"
         stop-color="#fff"
         offset="0" />
      <stop
         id="stop4354-4-5-0-3"
         stop-color="#fff"
         stop-opacity="0"
         offset="1" />
    </linearGradient>
  </defs>
  <metadata
     id="metadata4593">
    <rdf:RDF>
      <cc:Work
         rdf:about="">
        <dc:format>image/svg+xml</dc:format>
        <dc:type
           rdf:resource="http://purl.org/dc/dcmitype/StillImage" />
        <dc:title></dc:title>
      </cc:Work>
    </rdf:RDF>
  </metadata>
  <g
     id="g45718"
     style="fill:#898989;fill-opacity:1;stroke:#898989;stroke-opacity:1;enable-background:new"
     transform="matrix(1.1949089,0,0,1.1720644,-3.1366106,-12.568798)">
    <rect
       style="fill:#898989;fill-opacity:1;stroke:#898989;stroke-width:0;stroke-linejoin:miter;stroke-miterlimit:4;stroke-dasharray:none;stroke-opacity:1"
       id="rect4145"
       width="26.914627"
       height="27.439217"
       x="2.6341012"
       y="3.8544614" />
  </g>
  <g
     id="g4660"
     transform="matrix(0.87795993,0,0,0.87795993,1.9526412,-6.0473588)"
     style="fill:#282828;fill-opacity:1">
    <g
       id="g4603"
       style="fill:#282828;fill-opacity:1">
      <g
         id="steering_x5F_wheel"
         style="fill:#282828;fill-opacity:1">
        <path
           id="path4600"
           d="M 16,0 C 7.164,0 0,7.164 0,16 0,24.836 7.164,32 16,32 24.836,32 32,24.836 32,16 32,7.164 24.836,0 16,0 Z m 0,4 c 5.207,0 9.605,3.354 11.266,8 H 4.734 C 6.395,7.354 10.793,4 16,4 Z m 0,14 c -1.105,0 -2,-0.895 -2,-2 0,-1.105 0.895,-2 2,-2 1.105,0 2,0.895 2,2 0,1.105 -0.895,2 -2,2 z M 4,16 c 5.465,0 9.891,5.266 9.984,11.797 C 8.328,26.828 4,21.926 4,16 Z M 18.016,27.797 C 18.109,21.266 22.535,16 28,16 c 0,5.926 -4.328,10.828 -9.984,11.797 z"
           style="fill:#282828;fill-opacity:1"
           inkscape:connector-curvature="0" />
      </g>
    </g>
    <g
       id="g4605"
       style="fill:#282828;fill-opacity:1" />
    <g
       id="g4607"
       style="fill:#282828;fill-opacity:1" />
    <g
       id="g4609"
       style="fill:#282828;fill-opacity:1" />
    <g
       id="g4611"
       style="fill:#282828;fill-opacity:1" />
    <g
       id="g4613"
       style="fill:#282828;fill-opacity:1" />
    <g
       id="g4615"
       style="fill:#282828;fill-opacity:1" />
    <g
       id="g4617"
       style="fill:#282828;fill-opacity:1" />
    <g
       id="g4619"
       style="fill:#282828;fill-opacity:1" />
    <g
       id="g4621"
       style="fill:#282828;fill-opacity:1" />
    <g
       id="g4623"
       style="fill:#282828;fill-opacity:1" />
    <g
       id="g4625"
       style="fill:#282828;fill-opacity:1" />
    <g
       id="g4627"
       style="fill:#282828;fill-opacity:1" />
    <g
       id="g4629"
       style="fill:#282828;fill-opacity:1" />
    <g
       id="g4631"
       style="fill:#282828;fill-opacity:1" />
    <g
       id="g4633"
       style="fill:#282828;fill-opacity:1" />
  </g>
  <path
     style="fill:#282828;fill-opacity:1;stroke:#898989;stroke-width:0;stroke-miterlimit:4;stroke-dasharray:none;stroke-opacity:1"
     d="M 14.671038,21.958072 C 10.533818,21.562037 6.7484397,19.311374 4.3903995,15.845537 3.2359077,14.148671 2.488016,12.249208 2.1298101,10.104189 1.9770684,9.189538 1.9770684,6.82212 2.1298101,5.907468 2.8059167,1.8587891 4.923867,-1.4426048 8.2853566,-3.6876018 9.9568379,-4.8039136 11.90142,-5.5558576 13.946256,-5.8765965 c 0.947898,-0.1486808 3.204342,-0.1480956 4.105474,0.00106 2.565437,0.4246452 4.857364,1.4352776 6.761385,2.9814534 0.617788,0.5016802 1.639637,1.5220407 2.10151,2.09845 3.032069,3.7839631 3.90574,8.8004431 2.330225,13.3797681 -1.276474,3.710143 -4.166445,6.797833 -7.798064,8.331572 -2.104205,0.888667 -4.511929,1.259065 -6.775748,1.04236 z M 14.23388,17.978389 c 0,-0.56536 -0.16621,-1.733634 -0.350885,-2.466339 C 12.804839,11.234421 9.6674833,8.259842 5.9560684,7.996398 L 5.4324226,7.959228 v 0.235704 c 0,0.433458 0.1219305,1.437155 0.2425607,1.996689 0.6732281,3.122722 2.7706957,5.812509 5.6409537,7.233943 0.721451,0.357283 1.224048,0.545149 2.014482,0.752995 0.930373,0.244643 0.903461,0.250606 0.903461,-0.20017 z m 4.138433,0.28381 c 3.323365,-0.771832 6.166441,-3.201709 7.431087,-6.351088 0.423028,-1.053478 0.728179,-2.499371 0.728861,-3.453552 l 3.44e-4,-0.480874 h -0.240243 c -0.465263,0 -1.471194,0.183962 -2.059217,0.376584 -1.259842,0.412693 -2.282129,1.054898 -3.296169,2.070667 -1.908995,1.912249 -2.929156,4.301569 -3.179665,7.447102 -0.038,0.477133 -0.03723,0.480868 0.09892,0.480013 0.07547,-4.66e-4 0.307706,-0.04046 0.516085,-0.08885 z M 16.778274,9.588504 c 0.363023,-0.185713 0.678906,-0.515049 0.847142,-0.883222 0.18796,-0.411335 0.182044,-1.0504 -0.01349,-1.457195 -0.322885,-0.671741 -0.973063,-1.052664 -1.716844,-1.005855 -0.651465,0.041 -1.140889,0.352345 -1.460319,0.928983 -0.154441,0.278797 -0.171739,0.362863 -0.171739,0.834614 0,0.472727 0.01712,0.555501 0.173179,0.837259 0.462294,0.834659 1.513576,1.169252 2.342071,0.745416 z M 25.864661,4.377413 C 25.784368,4.050889 25.349642,3.135226 25.01006,2.577368 23.691818,0.4117893 21.736296,-1.1798519 19.407116,-1.982987 16.367182,-3.0312006 13.026035,-2.6253731 10.333772,-0.8809065 8.919645,0.0353848 7.7376426,1.2843226 6.8806577,2.767752 6.5435475,3.351285 6.0656085,4.41935 6.1096852,4.490667 c 0.015989,0.02587 4.4762678,0.04704 9.9117318,0.04704 h 9.88266 z"
     id="path841"
     inkscape:connector-curvature="0" />
  <path
     style="fill:#b4b4b4;fill-opacity:1;stroke:#898989;stroke-width:0;stroke-miterlimit:4;stroke-dasharray:none;stroke-opacity:1"
     d="M 14.671038,21.964924 C 11.335755,21.592879 8.4254554,20.221969 6.1348157,17.943898 4.3543587,16.17321 3.0939951,14.010979 2.465417,11.648816 1.9265274,9.623699 1.8423599,7.316278 2.234729,5.32459 3.311928,-0.1433349 7.5272279,-4.4711682 12.959173,-5.6861581 c 1.990584,-0.4452434 4.33255,-0.4250257 6.345745,0.054781 1.34993,0.3217305 3.250035,1.1512337 4.400729,1.9211666 1.126701,0.7538802 2.368894,1.8809746 3.212218,2.9145818 1.160062,1.421813 2.184717,3.4515807 2.64112,5.2318637 0.760935,2.968172 0.57074,5.996433 -0.552418,8.795531 -1.655456,4.125675 -5.285647,7.291787 -9.583762,8.358583 -0.433508,0.107597 -1.063606,0.237212 -1.400218,0.288034 -0.725022,0.109463 -2.690979,0.160226 -3.351549,0.08654 z M 14.216106,17.696175 C 14.005782,13.822788 11.78427,10.190866 8.7410168,8.745018 7.8341782,8.31418 6.4863866,7.976685 5.6726652,7.976685 c -0.2342759,0 -0.2402426,0.0049 -0.2402426,0.197832 0,0.380544 0.1230815,1.409809 0.2342391,1.958816 0.3016865,1.49003 1.0538105,3.109485 1.9994553,4.30518 1.4943569,1.889499 3.436005,3.155817 5.780878,3.770216 0.288524,0.0756 0.587619,0.138741 0.664654,0.140318 l 0.140064,0.0029 -0.03561,-0.655737 z m 4.350135,0.508757 c 4.461548,-1.136554 7.731233,-5.065055 7.95045,-9.552408 l 0.0339,-0.693923 -0.519011,0.03922 c -2.929975,0.221428 -5.53733,2.127155 -7.043019,5.14777 -0.687521,1.379259 -1.088913,2.923544 -1.228242,4.725443 -0.03672,0.474842 -0.03549,0.480868 0.09797,0.480343 0.07433,-2.91e-4 0.392912,-0.0662 0.707951,-0.146449 z M 16.767478,9.583092 C 17.389585,9.278723 17.754022,8.695474 17.753014,8.005829 17.75221,7.453542 17.582656,7.074864 17.165456,6.693566 16.072861,5.694997 14.341496,6.404592 14.248061,7.889253 c -0.05464,0.868209 0.495283,1.615896 1.355582,1.843079 0.306485,0.08094 0.830793,0.0137 1.163835,-0.14924 z m 9.123961,-5.111969 c 0,-0.03662 -0.09646,-0.292357 -0.214363,-0.568306 C 24.319769,0.7260019 21.585701,-1.5591139 18.251155,-2.3037188 13.511567,-3.3620694 8.6679414,-0.9822539 6.5361439,3.45221 6.3493098,3.840853 6.1794823,4.229338 6.1587495,4.31551 c -0.03599,0.149585 -0.02624,0.157697 0.2154384,0.179252 0.139224,0.01242 4.5875611,0.02716 9.8851931,0.03276 7.188353,0.0076 9.632058,-0.0067 9.632058,-0.0564 z"
     id="path843"
     inkscape:connector-curvature="0" />
</svg>
