<?xml version="1.0" encoding="UTF-8" standalone="no"?>
<svg
   xmlns:dc="http://purl.org/dc/elements/1.1/"
   xmlns:cc="http://creativecommons.org/ns#"
   xmlns:rdf="http://www.w3.org/1999/02/22-rdf-syntax-ns#"
   xmlns:svg="http://www.w3.org/2000/svg"
   xmlns="http://www.w3.org/2000/svg"
   xmlns:sodipodi="http://sodipodi.sourceforge.net/DTD/sodipodi-0.dtd"
   xmlns:inkscape="http://www.inkscape.org/namespaces/inkscape"
   id="svg4588"
   height="24.16053"
   width="24.16053"
   version="1.1"
   inkscape:version="0.92.4 (5da689c313, 2019-01-14)"
   sodipodi:docname="shipdriver_pi.svg">
  <sodipodi:namedview
     pagecolor="#ffffff"
     bordercolor="#666666"
     borderopacity="1"
     objecttolerance="10"
     gridtolerance="10"
     guidetolerance="10"
     inkscape:pageopacity="0"
     inkscape:pageshadow="2"
     inkscape:window-width="1256"
     inkscape:window-height="760"
     id="namedview4213"
     showgrid="false"
     inkscape:zoom="14.524389"
     inkscape:cx="10.784063"
     inkscape:cy="13.551375"
     inkscape:window-x="3"
     inkscape:window-y="0"
     inkscape:window-maximized="0"
     inkscape:current-layer="svg4588"
     fit-margin-top="0"
     fit-margin-left="0"
     fit-margin-right="0"
     fit-margin-bottom="0" />
  <defs
     id="defs4590">
    <linearGradient
       id="E"
       x1="73.009003"
       gradientUnits="userSpaceOnUse"
       x2="73.009003"
       gradientTransform="matrix(1.0329,0,0,1.0329,-59.414,-1122.2)"
       y1="1086.4"
       y2="1055.4">
      <stop
         id="stop4324"
         stop-color="#fff"
         offset="0" />
      <stop
         id="stop4326"
         stop-color="#939393"
         offset="1" />
    </linearGradient>
    <linearGradient
       id="F"
       x1="73.009003"
       gradientUnits="userSpaceOnUse"
       x2="73.009003"
       gradientTransform="matrix(1.0329,0,0,1.0329,-59.414,-1090.2)"
       y1="1086.4"
       y2="1070.9">
      <stop
         id="stop3297-5-3-1-9-9"
         stop-color="#fff"
         offset="0" />
      <stop
         id="stop4354-4-5-0-3"
         stop-color="#fff"
         stop-opacity="0"
         offset="1" />
    </linearGradient>
  </defs>
  <metadata
     id="metadata4593">
    <rdf:RDF>
      <cc:Work
         rdf:about="">
        <dc:format>image/svg+xml</dc:format>
        <dc:type
           rdf:resource="http://purl.org/dc/dcmitype/StillImage" />
        <dc:title></dc:title>
      </cc:Work>
    </rdf:RDF>
  </metadata>
  <g
     id="g45718"
     style="fill:#1a1a1a;fill-opacity:1;stroke:#898989;stroke-opacity:1;enable-background:new"
     transform="matrix(1.1949089,0,0,1.1720644,-3.1475103,-12.517676)">
    <rect
       style="fill:#282828;fill-opacity:1;stroke:#898989;stroke-width:0;stroke-linejoin:miter;stroke-miterlimit:4;stroke-dasharray:none;stroke-opacity:1"
       id="rect4145"
       width="26.914627"
       height="27.439217"
       x="2.6341012"
       y="3.8544614" />
  </g>
  <g
     id="g4660"
     transform="matrix(0.87795993,0,0,0.87795993,1.9417415,-5.9962373)"
     style="fill:#282828;fill-opacity:1">
    <g
       id="g4603"
       style="fill:#282828;fill-opacity:1">
      <g
         id="steering_x5F_wheel"
         style="fill:#282828;fill-opacity:1">
        <path
           id="path4600"
           d="M 16,0 C 7.164,0 0,7.164 0,16 0,24.836 7.164,32 16,32 24.836,32 32,24.836 32,16 32,7.164 24.836,0 16,0 Z m 0,4 c 5.207,0 9.605,3.354 11.266,8 H 4.734 C 6.395,7.354 10.793,4 16,4 Z m 0,14 c -1.105,0 -2,-0.895 -2,-2 0,-1.105 0.895,-2 2,-2 1.105,0 2,0.895 2,2 0,1.105 -0.895,2 -2,2 z M 4,16 c 5.465,0 9.891,5.266 9.984,11.797 C 8.328,26.828 4,21.926 4,16 Z M 18.016,27.797 C 18.109,21.266 22.535,16 28,16 c 0,5.926 -4.328,10.828 -9.984,11.797 z"
           style="fill:#282828;fill-opacity:1"
           inkscape:connector-curvature="0" />
      </g>
    </g>
    <g
       id="g4605"
       style="fill:#282828;fill-opacity:1" />
    <g
       id="g4607"
       style="fill:#282828;fill-opacity:1" />
    <g
       id="g4609"
       style="fill:#282828;fill-opacity:1" />
    <g
       id="g4611"
       style="fill:#282828;fill-opacity:1" />
    <g
       id="g4613"
       style="fill:#282828;fill-opacity:1" />
    <g
       id="g4615"
       style="fill:#282828;fill-opacity:1" />
    <g
       id="g4617"
       style="fill:#282828;fill-opacity:1" />
    <g
       id="g4619"
       style="fill:#282828;fill-opacity:1" />
    <g
       id="g4621"
       style="fill:#282828;fill-opacity:1" />
    <g
       id="g4623"
       style="fill:#282828;fill-opacity:1" />
    <g
       id="g4625"
       style="fill:#282828;fill-opacity:1" />
    <g
       id="g4627"
       style="fill:#282828;fill-opacity:1" />
    <g
       id="g4629"
       style="fill:#282828;fill-opacity:1" />
    <g
       id="g4631"
       style="fill:#282828;fill-opacity:1" />
    <g
       id="g4633"
       style="fill:#282828;fill-opacity:1" />
  </g>
  <path
     style="fill:#282828;fill-opacity:1;stroke:#898989;stroke-width:0;stroke-miterlimit:4;stroke-dasharray:none;stroke-opacity:1"
     d="M 14.660138,22.009194 C 10.522918,21.613159 6.73754,19.362496 4.3794998,15.896659 3.225008,14.199793 2.4771163,12.30033 2.1189104,10.155311 1.9661687,9.2406599 1.9661687,6.8732419 2.1189104,5.9585899 2.795017,1.9099106 4.9129673,-1.3914833 8.2744569,-3.6364803 9.9459382,-4.7527921 11.89052,-5.5047361 13.935356,-5.825475 c 0.947898,-0.1486808 3.204342,-0.1480956 4.105474,0.00106 2.565437,0.4246452 4.857364,1.4352776 6.761385,2.9814534 0.617788,0.5016802 1.639637,1.5220407 2.10151,2.09845001 3.032069,3.78396349 3.90574,8.80044349 2.330225,13.37976859 -1.276474,3.710143 -4.166445,6.797833 -7.798064,8.331572 -2.104205,0.888667 -4.511929,1.259065 -6.775748,1.04236 z M 14.22298,18.029511 c 0,-0.56536 -0.16621,-1.733634 -0.350885,-2.466339 C 12.793939,11.285543 9.6565836,8.3109639 5.9451687,8.0475199 l -0.5236458,-0.03717 v 0.235704 c 0,0.433458 0.1219305,1.437155 0.2425607,1.9966891 0.6732281,3.122722 2.7706957,5.812509 5.6409534,7.233943 0.721451,0.357283 1.224048,0.545149 2.014482,0.752995 0.930373,0.244643 0.903461,0.250606 0.903461,-0.20017 z m 4.138433,0.28381 c 3.323365,-0.771832 6.166441,-3.201709 7.431087,-6.351088 0.423028,-1.053478 0.728179,-2.4993711 0.728861,-3.4535521 l 3.44e-4,-0.480874 h -0.240243 c -0.465263,0 -1.471194,0.183962 -2.059217,0.376584 -1.259842,0.412693 -2.282129,1.054898 -3.296169,2.0706671 -1.908995,1.912249 -2.929156,4.301569 -3.179665,7.447102 -0.038,0.477133 -0.03723,0.480868 0.09892,0.480013 0.07547,-4.66e-4 0.307706,-0.04046 0.516085,-0.08885 z M 16.767374,9.6396259 c 0.363023,-0.185713 0.678906,-0.515049 0.847142,-0.883222 0.18796,-0.411335 0.182044,-1.0504 -0.01349,-1.457195 -0.322885,-0.671741 -0.973063,-1.052664 -1.716844,-1.005855 -0.651465,0.041 -1.140889,0.352345 -1.460319,0.928983 -0.154441,0.278797 -0.171739,0.362863 -0.171739,0.834614 0,0.472727 0.01712,0.555501 0.173179,0.837259 0.462294,0.834659 1.513576,1.1692521 2.342071,0.745416 z m 9.086387,-5.211091 C 25.773468,4.1020109 25.338742,3.1863479 24.99916,2.6284899 23.680918,0.46291081 21.725396,-1.1287304 19.396216,-1.9318655 16.356282,-2.9800791 13.015135,-2.5742516 10.322872,-0.82978499 8.9087453,0.08650631 7.7267429,1.3354441 6.869758,2.8188739 c -0.3371102,0.583533 -0.8150492,1.651598 -0.7709725,1.722915 0.015989,0.02587 4.4762675,0.04704 9.9117315,0.04704 h 9.88266 z"
     id="path841"
     inkscape:connector-curvature="0" />
  <path
     style="fill:#b4b4b4;fill-opacity:1;stroke:#898989;stroke-width:0;stroke-miterlimit:4;stroke-dasharray:none;stroke-opacity:1"
     d="M 14.660138,22.016046 C 11.324855,21.644001 8.4145557,20.273091 6.123916,17.99502 4.343459,16.224332 3.0830954,14.062101 2.4545173,11.699938 1.9156277,9.6748209 1.8314602,7.3673999 2.2238293,5.3757119 3.3010283,-0.09221339 7.5163282,-4.4200467 12.948273,-5.6350366 c 1.990584,-0.4452434 4.33255,-0.4250257 6.345745,0.054781 1.34993,0.3217305 3.250035,1.1512337 4.400729,1.9211666 1.126701,0.7538802 2.368894,1.8809746 3.212218,2.91458181 1.160062,1.421813 2.184717,3.45158109 2.64112,5.23186409 0.760935,2.968172 0.57074,5.9964331 -0.552418,8.7955311 -1.655456,4.125675 -5.285647,7.291787 -9.583762,8.358583 -0.433508,0.107597 -1.063606,0.237212 -1.400218,0.288034 -0.725022,0.109463 -2.690979,0.160226 -3.351549,0.08654 z M 14.205206,17.747297 C 13.994882,13.87391 11.77337,10.241988 8.7301171,8.7961399 7.8232785,8.3653019 6.4754869,8.0278069 5.6617655,8.0278069 c -0.2342759,0 -0.2402426,0.0049 -0.2402426,0.197832 0,0.380544 0.1230815,1.409809 0.2342391,1.9588161 0.3016865,1.49003 1.0538105,3.109485 1.9994553,4.30518 1.4943569,1.889499 3.4360047,3.155817 5.7808777,3.770216 0.288524,0.0756 0.587619,0.138741 0.664654,0.140318 l 0.140064,0.0029 -0.03561,-0.655737 z m 4.350135,0.508757 c 4.461548,-1.136554 7.731233,-5.065055 7.95045,-9.5524081 l 0.0339,-0.693923 -0.519011,0.03922 c -2.929975,0.221428 -5.53733,2.1271551 -7.043019,5.1477701 -0.687521,1.379259 -1.088913,2.923544 -1.228242,4.725443 -0.03672,0.474842 -0.03549,0.480868 0.09797,0.480343 0.07433,-2.91e-4 0.392912,-0.0662 0.707951,-0.146449 z M 16.756578,9.6342139 c 0.622107,-0.304369 0.986544,-0.887618 0.985536,-1.577263 -8.04e-4,-0.552287 -0.170358,-0.930965 -0.587558,-1.312263 -1.092595,-0.998569 -2.82396,-0.288974 -2.917395,1.195687 -0.05464,0.868209 0.495283,1.615896 1.355582,1.843079 0.306485,0.08094 0.830793,0.0137 1.163835,-0.14924 z m 9.123961,-5.111969 c 0,-0.03662 -0.09646,-0.292357 -0.214363,-0.568306 -1.357307,-3.17681549 -4.091375,-5.4619313 -7.425921,-6.2065362 -4.739588,-1.0583506 -9.5832133,1.32146491 -11.7150108,5.7559292 -0.1868341,0.388643 -0.3566616,0.777128 -0.3773944,0.8633 -0.03599,0.149585 -0.02624,0.157697 0.2154384,0.179252 0.139224,0.01242 4.5875608,0.02716 9.8851928,0.03276 7.188353,0.0076 9.632058,-0.0067 9.632058,-0.056399 z"
     id="path843"
     inkscape:connector-curvature="0" />
</svg>
